<svg width="20" height="21" viewBox="0 0 20 21" fill="none" xmlns="http://www.w3.org/2000/svg">
<path d="M10.1938 8.73755V12.4917H15.4109C15.1818 13.6991 14.4944 14.7214 13.4633 15.4087L16.6094 17.8499C18.4424 16.1579 19.4999 13.6727 19.4999 10.7205C19.4999 10.0331 19.4383 9.37211 19.3237 8.73765L10.1938 8.73755Z" fill="#4285F4"/>
<path d="M4.76125 12.3452L4.05168 12.8884L1.54004 14.8448C3.13512 18.0085 6.40437 20.194 10.1938 20.194C12.8111 20.194 15.0054 19.3304 16.6093 17.8499L13.4632 15.4088C12.5996 15.9904 11.498 16.3429 10.1938 16.3429C7.67337 16.3429 5.53196 14.6421 4.76521 12.3508L4.76125 12.3452Z" fill="#34A853"/>
<path d="M1.53982 6.15552C0.878904 7.45973 0.5 8.93147 0.5 10.5001C0.5 12.0687 0.878904 13.5404 1.53982 14.8447C1.53982 14.8534 4.7653 12.3419 4.7653 12.3419C4.57142 11.7602 4.45682 11.1434 4.45682 10.5C4.45682 9.85658 4.57142 9.23974 4.7653 8.6581L1.53982 6.15552Z" fill="#FBBC05"/>
<path d="M10.194 4.66609C11.6216 4.66609 12.8906 5.15958 13.9041 6.11136L16.68 3.33541C14.9968 1.76679 12.8114 0.806152 10.194 0.806152C6.40457 0.806152 3.13512 2.98287 1.54004 6.15543L4.76542 8.65822C5.53207 6.36691 7.67357 4.66609 10.194 4.66609Z" fill="#EA4335"/>
</svg>
